<svg xmlns="http://www.w3.org/2000/svg" viewBox="0 0 400 200" width="400" height="200">
  <defs>
    <linearGradient id="rainbow-sky" x1="0%" y1="0%" x2="0%" y2="100%">
      <stop offset="0%" style="stop-color:#87CEEB"/>
      <stop offset="100%" style="stop-color:#E0F6FF"/>
    </linearGradient>
  </defs>
  <rect width="400" height="200" fill="url(#rainbow-sky)"/>
  <!-- 彩虹 -->
  <g fill="none" stroke-linecap="round">
    <path d="M 50 180 A 150 150 0 0 1 350 180" stroke="#FF0000" stroke-width="12"/>
    <path d="M 62 180 A 138 138 0 0 1 338 180" stroke="#FF7F00" stroke-width="12"/>
    <path d="M 74 180 A 126 126 0 0 1 326 180" stroke="#FFFF00" stroke-width="12"/>
    <path d="M 86 180 A 114 114 0 0 1 314 180" stroke="#00FF00" stroke-width="12"/>
    <path d="M 98 180 A 102 102 0 0 1 302 180" stroke="#0000FF" stroke-width="12"/>
    <path d="M 110 180 A 90 90 0 0 1 290 180" stroke="#4B0082" stroke-width="12"/>
    <path d="M 122 180 A 78 78 0 0 1 278 180" stroke="#9400D3" stroke-width="12"/>
  </g>
  <!-- 云朵 -->
  <g fill="#fff">
    <ellipse cx="50" cy="180" rx="40" ry="20"/>
    <ellipse cx="350" cy="180" rx="40" ry="20"/>
  </g>
  <!-- 数字方块们 -->
  <g transform="translate(180, 100)">
    <rect x="0" y="0" width="30" height="30" rx="6" fill="#e53935"/>
    <circle cx="10" cy="12" r="3" fill="#fff"/>
    <circle cx="20" cy="12" r="3" fill="#fff"/>
    <circle cx="11" cy="13" r="1.5" fill="#23233a"/>
    <circle cx="19" cy="13" r="1.5" fill="#23233a"/>
    <path d="M 8 20 Q 15 25 22 20" stroke="#23233a" stroke-width="1.5" fill="none" stroke-linecap="round"/>
  </g>
  <g transform="translate(210, 90)">
    <rect x="0" y="0" width="30" height="30" rx="6" fill="#fb8c00"/>
    <circle cx="10" cy="12" r="3" fill="#fff"/>
    <circle cx="20" cy="12" r="3" fill="#fff"/>
    <circle cx="11" cy="13" r="1.5" fill="#23233a"/>
    <circle cx="19" cy="13" r="1.5" fill="#23233a"/>
    <path d="M 8 20 Q 15 25 22 20" stroke="#23233a" stroke-width="1.5" fill="none" stroke-linecap="round"/>
  </g>
  <g transform="translate(240, 100)">
    <rect x="0" y="0" width="30" height="30" rx="6" fill="#fdd835"/>
    <circle cx="10" cy="12" r="3" fill="#fff"/>
    <circle cx="20" cy="12" r="3" fill="#fff"/>
    <circle cx="11" cy="13" r="1.5" fill="#23233a"/>
    <circle cx="19" cy="13" r="1.5" fill="#23233a"/>
    <path d="M 8 20 Q 15 25 22 20" stroke="#23233a" stroke-width="1.5" fill="none" stroke-linecap="round"/>
  </g>
</svg>